<?xml version="1.0" standalone="no"?>
<!DOCTYPE svg PUBLIC "-//W3C//DTD SVG 20010904//EN"
 "http://www.w3.org/TR/2001/REC-SVG-20010904/DTD/svg10.dtd">
<svg version="1.0" xmlns="http://www.w3.org/2000/svg"
 width="330.000000pt" height="335.000000pt" viewBox="0 0 330.000000 335.000000"
 preserveAspectRatio="xMidYMid meet">

<g transform="translate(0.000000,335.000000) scale(0.100000,-0.100000)"
fill="#000000" stroke="none">
<path d="M834 2829 c-11 -6 -28 -23 -37 -39 -15 -25 -17 -90 -17 -692 0 -623
1 -665 18 -697 10 -19 34 -43 53 -53 32 -17 76 -18 764 -18 706 0 731 1 762
20 18 10 39 32 47 48 15 30 186 879 186 926 0 61 -49 96 -135 96 l-45 0 0 69
c0 37 -5 82 -11 100 -21 60 -25 61 -478 61 l-410 0 -56 80 c-31 44 -66 86 -78
95 -18 12 -65 15 -282 14 -153 0 -269 -5 -281 -10z m1459 -280 c30 -14 47 -48
47 -94 0 -33 -2 -35 -35 -35 -27 0 -35 4 -35 18 0 10 -5 23 -12 30 -17 17
-1289 17 -1306 0 -8 -8 -12 -54 -12 -142 0 -107 -5 -161 -31 -293 -18 -90 -35
-163 -38 -163 -10 0 3 634 14 651 6 9 19 21 30 27 28 16 1344 17 1378 1z m244
-215 c3 -9 1 -39 -5 -67 -6 -29 -46 -227 -88 -442 -42 -214 -80 -398 -86 -408
-8 -16 -51 -17 -741 -15 l-732 3 -3 28 c-5 39 18 172 94 556 35 178 64 325 64
326 0 2 7 11 16 19 14 14 95 16 745 16 657 0 730 -2 736 -16z"/>
<path d="M2117 1843 c-4 -3 -7 -17 -7 -29 0 -30 23 -36 114 -32 76 3 102 21
77 52 -10 12 -33 16 -96 16 -45 0 -85 -3 -88 -7z"/>
<path d="M2042 1681 c-8 -4 -12 -19 -10 -32 3 -24 4 -24 117 -24 95 0 116 3
124 17 8 12 7 21 -2 32 -11 13 -34 16 -115 16 -55 0 -107 -4 -114 -9z"/>
<path d="M297 1123 c-4 -3 -7 -75 -7 -160 l0 -153 69 0 c54 0 75 5 102 23 46
31 59 61 59 135 0 81 -19 118 -73 143 -41 18 -137 26 -150 12z m138 -73 c10
-11 20 -41 23 -68 6 -64 -16 -108 -59 -117 -17 -4 -32 -5 -34 -3 -2 1 -5 49
-7 106 l-3 102 31 0 c18 0 38 -8 49 -20z"/>
<path d="M641 1117 c-44 -22 -65 -62 -69 -131 -8 -118 31 -176 117 -176 55 0
88 20 107 66 19 46 18 145 -3 188 -26 56 -98 81 -152 53z m96 -84 c27 -66 -1
-173 -46 -173 -35 0 -53 35 -54 102 -2 79 13 108 54 108 25 0 32 -6 46 -37z"/>
<path d="M870 970 l0 -160 30 0 c30 0 30 0 30 59 0 92 19 95 59 11 30 -63 37
-70 62 -70 16 0 29 4 29 10 0 5 -19 48 -42 94 l-42 85 46 60 c26 32 44 62 41
65 -4 3 -19 6 -33 6 -23 0 -35 -11 -71 -67 l-44 -67 -3 67 c-3 67 -3 67 -32
67 l-30 0 0 -160z"/>
<path d="M1132 994 c3 -135 3 -136 31 -160 53 -45 148 -28 172 31 16 36 22
254 8 256 -56 10 -53 15 -53 -105 0 -119 -12 -156 -50 -156 -38 0 -50 37 -50
157 l0 113 -31 0 -31 0 4 -136z"/>
<path d="M1420 1126 c-3 -2 -4 -74 -2 -160 l3 -156 24 0 c25 0 25 1 26 103 l0
102 28 -75 c26 -69 31 -75 57 -75 26 0 30 6 57 75 15 41 29 75 30 76 1 1 0
-42 -1 -97 l-4 -99 31 0 31 0 0 155 0 155 -34 0 c-33 0 -35 -2 -61 -72 -54
-146 -43 -142 -84 -31 -34 93 -38 98 -66 101 -17 2 -33 1 -35 -2z"/>
<path d="M1770 975 l0 -155 91 0 c88 0 90 1 87 23 -3 19 -10 22 -60 25 l-58 3
0 34 0 35 50 0 c47 0 50 2 50 25 0 23 -3 25 -50 25 l-50 0 0 40 0 40 53 0 c62
0 66 2 59 35 -4 24 -7 25 -88 25 l-84 0 0 -155z"/>
<path d="M2000 975 l0 -155 25 0 c25 0 25 0 25 98 l0 97 28 -51 c75 -140 86
-155 112 -152 l25 3 0 155 0 155 -27 3 -28 3 -1 -103 c0 -57 -3 -96 -6 -88 -3
8 -28 54 -55 103 -41 72 -53 87 -74 87 l-24 0 0 -155z"/>
<path d="M2260 1105 c0 -22 4 -25 35 -25 l35 0 0 -130 0 -130 30 0 29 0 3 128
c2 93 6 127 16 128 6 1 24 2 38 3 20 1 25 5 22 24 -3 21 -8 22 -105 25 l-103
3 0 -26z"/>
<path d="M2517 1123 c-4 -3 -7 -73 -7 -155 l0 -148 90 0 c89 0 90 0 90 25 0
24 -3 25 -55 25 l-55 0 0 38 0 37 47 0 c42 0 48 3 51 23 3 20 0 22 -47 22
l-51 0 0 40 0 40 55 0 c54 0 55 0 55 30 l0 30 -83 0 c-46 0 -87 -3 -90 -7z"/>
<path d="M2747 1123 c-4 -3 -7 -73 -7 -155 l0 -148 30 0 30 0 0 92 0 92 54
-94 c44 -77 59 -96 80 -98 l26 -3 0 161 0 161 -27 -3 -28 -3 1 -92 c1 -51 0
-93 -1 -93 -2 0 -27 43 -55 95 -42 77 -56 95 -74 95 -12 0 -26 -3 -29 -7z"/>
<path d="M645 682 c-3 -3 -5 -74 -5 -159 l0 -153 31 0 31 0 -4 100 c-1 55 -1
100 2 100 3 0 11 -19 18 -42 28 -89 40 -108 66 -108 28 0 35 10 62 90 10 30
21 58 24 62 3 4 4 -40 2 -97 l-3 -105 31 0 31 0 -3 158 -3 157 -34 0 -34 0
-37 -104 -37 -104 -11 39 c-8 32 -51 152 -57 162 -4 5 -65 9 -70 4z"/>
<path d="M1065 676 c-29 -92 -85 -285 -85 -294 0 -7 13 -12 29 -12 23 0 30 6
37 33 9 30 13 32 56 35 46 3 47 2 56 -30 7 -28 13 -34 40 -36 18 -2 32 1 32 5
0 5 -20 76 -44 158 l-43 149 -37 1 c-21 1 -39 -3 -41 -9z m65 -173 c0 -8 -13
-13 -31 -13 -24 0 -29 4 -25 18 2 9 10 37 17 61 l13 44 13 -49 c7 -27 13 -55
13 -61z"/>
<path d="M1285 682 c-3 -3 -5 -74 -5 -159 l0 -153 31 0 30 0 -3 95 c-2 52 -2
95 -2 95 1 0 26 -43 55 -95 48 -83 57 -95 82 -95 l27 0 0 153 c0 85 -2 156 -5
159 -3 3 -17 3 -31 0 l-26 -5 4 -97 3 -97 -55 100 c-43 77 -61 101 -78 102
-12 1 -24 -1 -27 -3z"/>
<path d="M1600 543 c-24 -82 -45 -154 -48 -160 -3 -9 7 -13 31 -13 32 0 35 3
41 35 7 34 8 35 55 35 48 0 49 -1 55 -35 6 -32 10 -35 42 -35 29 0 34 3 30 18
-3 9 -24 77 -46 151 -22 73 -42 136 -44 140 -3 4 -20 8 -38 9 l-34 2 -44 -147z
m90 25 c6 -24 13 -51 16 -60 4 -14 -1 -18 -25 -18 -17 0 -31 4 -31 9 0 14 23
111 26 111 2 0 8 -19 14 -42z"/>
<path d="M1911 677 c-44 -22 -65 -62 -69 -131 -7 -108 28 -171 101 -183 79
-12 127 35 127 127 l0 50 -55 0 c-52 0 -55 -1 -55 -25 0 -20 5 -25 26 -25 22
0 25 -4 22 -26 -2 -15 -13 -33 -24 -41 -20 -13 -25 -11 -50 11 -26 22 -29 30
-28 88 1 80 16 110 52 106 16 -2 31 -12 37 -25 13 -31 65 -33 65 -2 0 33 -19
60 -55 75 -42 17 -63 17 -94 1z"/>
<path d="M2380 528 l0 -158 30 0 30 0 0 60 c0 52 3 60 19 60 13 0 26 -17 44
-60 25 -57 28 -60 62 -60 l35 0 -32 64 -31 63 21 21 c38 38 41 102 7 136 -22
21 -87 37 -140 35 l-45 -3 0 -158z m138 67 c4 -33 -18 -55 -55 -55 -21 0 -23
5 -23 46 l0 45 38 -3 c33 -3 37 -6 40 -33z"/>
<path d="M2140 525 l0 -155 90 0 c89 0 90 0 90 25 0 24 -3 25 -60 25 l-60 0 0
40 0 40 50 0 c47 0 50 2 50 25 0 23 -3 25 -50 25 l-50 0 0 40 0 40 60 0 c57 0
60 1 60 25 0 25 -1 25 -90 25 l-90 0 0 -155z"/>
</g>
</svg>
